<svg width="600" height="600" viewBox="0 0 600 600" xmlns="http://www.w3.org/2000/svg">
  <defs>
    <pattern id="elegant-floral" x="0" y="0" width="300" height="300" patternUnits="userSpaceOnUse">
      <!-- Main elegant flowers -->
      <g opacity="0.35" fill="#d4a574">
        <!-- Large elegant flower 1 -->
        <circle cx="75" cy="75" r="15"/>
        <circle cx="70" cy="70" r="7"/>
        <circle cx="80" cy="70" r="7"/>
        <circle cx="70" cy="80" r="7"/>
        <circle cx="80" cy="80" r="7"/>
        <circle cx="75" cy="65" r="5"/>
        <circle cx="75" cy="85" r="5"/>
        <circle cx="65" cy="75" r="5"/>
        <circle cx="85" cy="75" r="5"/>
        
        <!-- Large elegant flower 2 -->
        <circle cx="225" cy="150" r="12"/>
        <circle cx="221" cy="146" r="6"/>
        <circle cx="229" cy="146" r="6"/>
        <circle cx="221" cy="154" r="6"/>
        <circle cx="229" cy="154" r="6"/>
        <circle cx="225" cy="140" r="4"/>
        <circle cx="225" cy="160" r="4"/>
        <circle cx="215" cy="150" r="4"/>
        <circle cx="235" cy="150" r="4"/>
        
        <!-- Large elegant flower 3 -->
        <circle cx="150" cy="225" r="13"/>
        <circle cx="145" cy="220" r="6.5"/>
        <circle cx="155" cy="220" r="6.5"/>
        <circle cx="145" cy="230" r="6.5"/>
        <circle cx="155" cy="230" r="6.5"/>
        <circle cx="150" cy="214" r="4.5"/>
        <circle cx="150" cy="236" r="4.5"/>
        <circle cx="139" cy="225" r="4.5"/>
        <circle cx="161" cy="225" r="4.5"/>
        
        <!-- Medium flower 1 -->
        <circle cx="225" cy="75" r="10"/>
        <circle cx="221" cy="71" r="5"/>
        <circle cx="229" cy="71" r="5"/>
        <circle cx="221" cy="79" r="5"/>
        <circle cx="229" cy="79" r="5"/>
        
        <!-- Medium flower 2 -->
        <circle cx="75" cy="225" r="11"/>
        <circle cx="70" cy="220" r="5.5"/>
        <circle cx="80" cy="220" r="5.5"/>
        <circle cx="70" cy="230" r="5.5"/>
        <circle cx="80" cy="230" r="5.5"/>
      </g>
      
      <!-- Elegant leaves and vines -->
      <g opacity="0.25" fill="#a8b5a8">
        <!-- Curved vine 1 -->
        <path d="M50 100 Q100 80, 150 100 T250 100" stroke="#a8b5a8" stroke-width="3" fill="none"/>
        <ellipse cx="100" cy="90" rx="10" ry="5" transform="rotate(30 100 90)"/>
        <ellipse cx="200" cy="110" rx="8" ry="4" transform="rotate(-20 200 110)"/>
        
        <!-- Curved vine 2 -->
        <path d="M100 200 Q150 180, 200 200 T300 200" stroke="#a8b5a8" stroke-width="2.5" fill="none"/>
        <ellipse cx="150" cy="190" rx="9" ry="4.5" transform="rotate(45 150 190)"/>
        <ellipse cx="250" cy="210" rx="7" ry="3.5" transform="rotate(-15 250 210)"/>
        
        <!-- Individual elegant leaves -->
        <ellipse cx="180" cy="120" rx="14" ry="7" transform="rotate(45 180 120)"/>
        <ellipse cx="120" cy="180" rx="12" ry="6" transform="rotate(-30 120 180)"/>
        <ellipse cx="60" cy="150" rx="11" ry="5.5" transform="rotate(60 60 150)"/>
        <ellipse cx="240" cy="90" rx="10" ry="5" transform="rotate(-15 240 90)"/>
        <ellipse cx="90" cy="240" rx="13" ry="6.5" transform="rotate(75 90 240)"/>
      </g>
      
      <!-- Subtle decorative elements -->
      <g opacity="0.15" fill="#c4a484">
        <!-- Small dots for texture -->
        <circle cx="25" cy="25" r="2"/>
        <circle cx="275" cy="25" r="2"/>
        <circle cx="25" cy="275" r="2"/>
        <circle cx="275" cy="275" r="2"/>
        <circle cx="150" cy="150" r="2"/>
        <circle cx="75" cy="75" r="1.5"/>
        <circle cx="225" cy="75" r="1.5"/>
        <circle cx="75" cy="225" r="1.5"/>
        <circle cx="225" cy="225" r="1.5"/>
        <circle cx="50" cy="150" r="1.5"/>
        <circle cx="250" cy="150" r="1.5"/>
        <circle cx="150" cy="50" r="1.5"/>
        <circle cx="150" cy="250" r="1.5"/>
        
        <!-- Small decorative flourishes -->
        <path d="M40 40 Q50 35, 60 40" stroke="#c4a484" stroke-width="1.5" fill="none"/>
        <path d="M240 40 Q250 35, 260 40" stroke="#c4a484" stroke-width="1.5" fill="none"/>
        <path d="M40 260 Q50 265, 60 260" stroke="#c4a484" stroke-width="1.5" fill="none"/>
        <path d="M240 260 Q250 265, 260 260" stroke="#c4a484" stroke-width="1.5" fill="none"/>
      </g>
      
      <!-- Very subtle background texture -->
      <g opacity="0.1" fill="#d4a574">
        <circle cx="30" cy="30" r="1"/>
        <circle cx="270" cy="30" r="1"/>
        <circle cx="30" cy="270" r="1"/>
        <circle cx="270" cy="270" r="1"/>
        <circle cx="100" cy="100" r="1"/>
        <circle cx="200" cy="100" r="1"/>
        <circle cx="100" cy="200" r="1"/>
        <circle cx="200" cy="200" r="1"/>
      </g>
    </pattern>
  </defs>
  
  <!-- Background with elegant pattern -->
  <rect width="600" height="600" fill="url(#elegant-floral)"/>
</svg> 